<svg width="18" height="18" viewBox="0 0 18 18" fill="none" xmlns="http://www.w3.org/2000/svg">
<path d="M5.79611 3.90354L6.41915 5.01996C6.98143 6.02746 6.75573 7.34913 5.87013 8.23472C5.87013 8.23472 4.79606 9.30896 6.74354 11.2565C8.69042 13.2034 9.76534 12.1299 9.76534 12.1299C10.6509 11.2443 11.9726 11.0186 12.9801 11.5809L14.0965 12.2039C15.6179 13.053 15.7975 15.1865 14.4603 16.5238C13.6568 17.3273 12.6724 17.9525 11.5843 17.9937C9.75247 18.0632 6.64158 17.5996 3.521 14.479C0.400448 11.3585 -0.0631565 8.2476 0.00629 6.41579C0.0475413 5.32764 0.672771 4.34328 1.4763 3.53976C2.81354 2.20252 4.94706 2.3822 5.79611 3.90354Z" fill="white"/>
<path d="M8.88899 0.604641C8.95254 0.212105 9.32358 -0.0541704 9.71613 0.00937213C9.74042 0.0140281 9.81866 0.0286394 9.85955 0.0377594C9.94154 0.056009 10.0558 0.0840891 10.1982 0.12559C10.4832 0.208573 10.8812 0.345286 11.3589 0.564292C12.3153 1.00278 13.5881 1.76982 14.9089 3.09059C16.2296 4.41136 16.9967 5.68414 17.4351 6.64058C17.6542 7.11829 17.7909 7.51631 17.8738 7.80122C17.9153 7.94369 17.9434 8.05796 17.9617 8.13987C17.9708 8.18083 17.9775 8.21372 17.9821 8.23802L17.9877 8.26797C18.0512 8.66047 17.7873 9.04696 17.3948 9.11052C17.0034 9.17388 16.6347 8.90882 16.5696 8.5182C16.5676 8.50764 16.562 8.47951 16.5561 8.45292C16.5442 8.39973 16.5238 8.31542 16.4913 8.20391C16.4264 7.98087 16.3136 7.64936 16.1262 7.2407C15.7519 6.4244 15.079 5.29719 13.8906 4.10883C12.7023 2.92048 11.5751 2.24753 10.7588 1.87329C10.3501 1.68594 10.0186 1.57311 9.79552 1.50814C9.68406 1.47566 9.5439 1.44349 9.49072 1.43165C9.1 1.36654 8.82563 0.996053 8.88899 0.604641Z" fill="white"/>
<path fill-rule="evenodd" clip-rule="evenodd" d="M9.106 3.91613C9.21525 3.53378 9.61374 3.31239 9.99611 3.42162L9.79835 4.11393C9.99611 3.42162 9.99611 3.42162 9.99611 3.42162L9.99755 3.42203L9.99899 3.42245L10.0022 3.42338L10.0096 3.42561L10.0287 3.43152C10.0431 3.43615 10.0612 3.44218 10.0827 3.44983C10.1258 3.46513 10.1828 3.48689 10.2527 3.51684C10.3926 3.57678 10.5836 3.66934 10.8185 3.80827C11.2883 4.08636 11.9297 4.54829 12.6834 5.30187C13.437 6.05545 13.8988 6.6969 14.1769 7.16679C14.3158 7.40152 14.4084 7.59262 14.4684 7.73249C14.4983 7.80237 14.5201 7.85936 14.5354 7.90247C14.5431 7.92403 14.549 7.9421 14.5537 7.95658L14.5596 7.97558L14.5618 7.98302L14.5627 7.98621L14.5631 7.98769C14.5631 7.98769 14.5636 7.98907 13.8713 8.18687L14.5636 7.98908C14.6729 8.37142 14.4514 8.7699 14.0691 8.87915C13.69 8.98744 13.295 8.77077 13.1818 8.39438L13.1782 8.38403C13.1731 8.3696 13.1626 8.3412 13.1448 8.29973C13.1093 8.21685 13.0449 8.08126 12.9378 7.90022C12.7237 7.53855 12.3371 6.99206 11.6651 6.3201C10.9932 5.64815 10.4466 5.26156 10.085 5.0475C9.90395 4.94035 9.7684 4.87593 9.68546 4.84041C9.64398 4.82264 9.61557 4.81204 9.60117 4.80693L9.5908 4.80338C9.21448 4.69022 8.99771 4.29523 9.106 3.91613Z" fill="white"/>
</svg>
