<svg width="19" height="22" viewBox="0 0 19 22" fill="none" xmlns="http://www.w3.org/2000/svg">
<path d="M15.6319 20.1231C14.6114 20.7144 13.4922 21.1314 12.3199 21.35C10.2537 21.7352 8.1192 21.4861 6.19724 20.6353C4.27527 19.7845 2.65581 18.372 1.55182 16.5834C0.447838 14.7948 -0.0889528 12.714 0.0120264 10.6146C0.113006 8.51516 0.847051 6.49546 2.1176 4.8211C3.38815 3.14674 5.13572 1.89614 7.13047 1.23376C9.12522 0.571388 11.2737 0.528259 13.2935 1.11005C14.4394 1.44014 15.5134 1.96262 16.4724 2.64917C17.2027 3.17202 17.8663 3.79003 18.4441 4.49068L18.4463 4.49332L18.441 4.49762C18.5935 4.68939 18.6846 4.93215 18.6846 5.1962C18.6846 5.81655 18.1818 6.31944 17.5614 6.31944C17.2197 6.31944 16.9137 6.16687 16.7076 5.92613L16.6991 5.93313L16.6971 5.93069C15.6513 4.66263 14.2463 3.74053 12.6668 3.28554C11.0863 2.83026 9.40493 2.86401 7.84393 3.38235C6.28293 3.9007 4.91536 4.87936 3.92109 6.18964C2.92681 7.49991 2.35238 9.08044 2.27335 10.7234C2.19433 12.3663 2.61441 13.9946 3.47833 15.3943C4.34226 16.7939 5.60958 17.8993 7.11363 18.5651C8.61767 19.2309 10.288 19.4259 11.9049 19.1244C13.5219 18.8229 15.0097 18.0391 16.1728 16.876L16.1842 16.8875C16.3855 16.6968 16.6574 16.5798 16.9566 16.5798C17.5769 16.5798 18.0798 17.0827 18.0798 17.703C18.0798 18.0022 17.9629 18.2741 17.7721 18.4754L17.7736 18.4769C17.1307 19.1199 16.41 19.6722 15.6319 20.1231Z" fill="#FFEADD"/>
<path d="M13.9996 17.3009C13.3001 17.7069 12.5328 17.9933 11.7291 18.1434C10.3126 18.408 8.84931 18.2369 7.53172 17.6526C6.21411 17.0684 5.10389 16.0983 4.34705 14.8701C3.59022 13.6418 3.22222 12.2129 3.29145 10.7712C3.36067 9.32945 3.8639 7.94248 4.73492 6.79266C5.60595 5.64285 6.80399 4.78403 8.17149 4.32916C9.53899 3.87429 11.0119 3.84468 12.3965 4.2442C13.1821 4.47088 13.9184 4.82968 14.5758 5.30115C15.0765 5.6602 15.5314 6.0846 15.9275 6.56576L15.929 6.56757L15.9254 6.57052C16.03 6.70221 16.0924 6.86893 16.0924 7.05025C16.0924 7.47626 15.7477 7.82161 15.3224 7.82161C15.0882 7.82161 14.8783 7.71683 14.7371 7.55151L14.7313 7.55632L14.7299 7.55464C14.0129 6.68384 13.0498 6.05061 11.9669 5.73816C10.8834 5.42551 9.73074 5.44868 8.6606 5.80464C7.59046 6.1606 6.65293 6.83267 5.9713 7.73247C5.28967 8.63226 4.89588 9.71764 4.8417 10.8459C4.78753 11.9741 5.07551 13.0923 5.66777 14.0535C6.26003 15.0147 7.12885 15.7738 8.15994 16.231C9.19103 16.6882 10.3361 16.8221 11.4446 16.615C12.5531 16.408 13.5731 15.8697 14.3704 15.071L14.3783 15.0789C14.5163 14.9479 14.7027 14.8676 14.9078 14.8676C15.333 14.8676 15.6778 15.213 15.6778 15.639C15.6778 15.8444 15.5976 16.0311 15.4669 16.1694L15.4679 16.1704C15.0271 16.6119 14.533 16.9912 13.9996 17.3009Z" fill="#FFEADD"/>
<path d="M12.5879 15.094C12.1384 15.3559 11.6455 15.5406 11.1291 15.6374C10.219 15.8081 9.27884 15.6977 8.43229 15.3209C7.58573 14.944 6.87242 14.3184 6.38615 13.5261C5.89989 12.7339 5.66346 11.8122 5.70793 10.8823C5.75241 9.95232 6.07573 9.0577 6.63536 8.31605C7.19499 7.5744 7.96473 7.02045 8.84334 6.72706C9.72195 6.43366 10.6683 6.41456 11.5579 6.67226C12.0626 6.81847 12.5357 7.0499 12.9581 7.354C13.2798 7.5856 13.5721 7.85934 13.8266 8.16969L13.8275 8.17086L13.8252 8.17277C13.8924 8.25771 13.9325 8.36524 13.9325 8.4822C13.9325 8.75698 13.711 8.97974 13.4378 8.97974C13.2873 8.97974 13.1525 8.91215 13.0617 8.80552L13.058 8.80862L13.0571 8.80754C12.5964 8.24586 11.9776 7.83742 11.2819 7.63588C10.5857 7.43422 9.84515 7.44917 9.15759 7.67876C8.47003 7.90836 7.86767 8.34186 7.42973 8.92224C6.99179 9.50262 6.73877 10.2027 6.70396 10.9304C6.66916 11.6582 6.85419 12.3794 7.23471 12.9994C7.61524 13.6194 8.17345 14.109 8.83592 14.4039C9.49839 14.6988 10.2341 14.7852 10.9463 14.6516C11.6585 14.5181 12.3139 14.1709 12.8261 13.6557L12.8312 13.6608C12.9198 13.5763 13.0396 13.5245 13.1714 13.5245C13.4446 13.5245 13.6661 13.7473 13.6661 14.022C13.6661 14.1546 13.6146 14.275 13.5306 14.3642L13.5313 14.3648C13.248 14.6496 12.9306 14.8943 12.5879 15.094Z" fill="#FFEADD"/>
<path d="M11.6916 13.5816C11.4121 13.7435 11.1054 13.8577 10.7842 13.9176C10.2181 14.0231 9.63326 13.9549 9.10666 13.7219C8.58007 13.4889 8.13635 13.102 7.83387 12.6122C7.53139 12.1224 7.38432 11.5526 7.41199 10.9776C7.43965 10.4027 7.64077 9.84955 7.98889 9.39102C8.33701 8.93248 8.81582 8.58999 9.36236 8.40859C9.9089 8.22719 10.4976 8.21538 11.0509 8.37471C11.3649 8.46511 11.6592 8.6082 11.9219 8.79621C12.122 8.9394 12.3038 9.10865 12.4622 9.30053L12.4628 9.30125L12.4613 9.30243C12.5031 9.35495 12.5281 9.42143 12.5281 9.49374C12.5281 9.66363 12.3903 9.80135 12.2203 9.80135C12.1267 9.80135 12.0428 9.75957 11.9864 9.69364L11.9841 9.69556L11.9835 9.69489C11.697 9.34762 11.312 9.09509 10.8793 8.97049C10.4462 8.84581 9.98553 8.85505 9.55784 8.997C9.13014 9.13896 8.75544 9.40697 8.48302 9.7658C8.2106 10.1246 8.05322 10.5575 8.03156 11.0074C8.00991 11.4573 8.12501 11.9033 8.36171 12.2866C8.59842 12.6699 8.94565 12.9726 9.35774 13.1549C9.76983 13.3373 10.2275 13.3907 10.6705 13.3081C11.1135 13.2255 11.5212 13.0109 11.8398 12.6924L11.843 12.6955C11.8981 12.6433 11.9726 12.6112 12.0546 12.6112C12.2246 12.6112 12.3624 12.749 12.3624 12.9188C12.3624 13.0008 12.3303 13.0752 12.2781 13.1304L12.2785 13.1308C12.1023 13.3069 11.9048 13.4581 11.6916 13.5816Z" fill="#FFEADD"/>
</svg>
