<svg width="24" height="27" viewBox="0 0 24 27" fill="none" xmlns="http://www.w3.org/2000/svg">
<path d="M19.2806 24.4366C18.022 25.1659 16.6415 25.6803 15.1956 25.9499C12.647 26.425 10.0143 26.1177 7.64377 25.0684C5.27318 24.019 3.27571 22.2767 1.91403 20.0707C0.55237 17.8646 -0.109716 15.2981 0.0148335 12.7087C0.139383 10.1192 1.04476 7.62808 2.61188 5.5629C4.179 3.49773 6.33446 1.95522 8.79483 1.13823C11.2552 0.32125 13.9052 0.268054 16.3963 0.985642C17.8097 1.39278 19.1345 2.03721 20.3173 2.88401C21.218 3.52891 22.0365 4.29117 22.7492 5.15536L22.7519 5.15861L22.7454 5.16392C22.9335 5.40045 23.0459 5.69988 23.0459 6.02556C23.0459 6.7907 22.4256 7.41098 21.6605 7.41098C21.239 7.41098 20.8615 7.22279 20.6074 6.92586L20.597 6.9345L20.5945 6.93149C19.3045 5.36744 17.5716 4.23011 15.6234 3.66892C13.674 3.10737 11.6002 3.149 9.67481 3.78833C7.74945 4.42767 6.06268 5.63477 4.83632 7.25088C3.60997 8.86699 2.90146 10.8164 2.80399 12.8428C2.70652 14.8692 3.22465 16.8777 4.29023 18.604C5.3558 20.3304 6.91894 21.6938 8.77405 22.515C10.6291 23.3361 12.6894 23.5766 14.6837 23.2048C16.6781 22.8329 18.5132 21.8662 19.9477 20.4316L19.9619 20.4457C20.2102 20.2105 20.5455 20.0662 20.9145 20.0662C21.6796 20.0662 22.2999 20.6865 22.2999 21.4517C22.2999 21.8207 22.1556 22.156 21.9204 22.4043L21.9223 22.4061C21.1292 23.1992 20.2403 23.8804 19.2806 24.4366Z" fill="#381805"/>
<path d="M17.2671 20.9557C16.4042 21.4566 15.4579 21.8098 14.4666 21.9949C12.7195 22.3212 10.9146 22.1102 9.28949 21.3896C7.66434 20.669 6.29498 19.4725 5.36148 17.9576C4.42799 16.4426 3.9741 14.6802 4.05949 12.9019C4.14487 11.1237 4.76555 9.41297 5.83989 7.99477C6.91422 6.57657 8.3919 5.51729 10.0786 4.95625C11.7653 4.39521 13.582 4.35868 15.2898 4.85146C16.2588 5.13105 17.1669 5.5736 17.9778 6.15511C18.5953 6.59798 19.1564 7.12144 19.645 7.7149L19.6468 7.71713L19.6424 7.72078C19.7714 7.8832 19.8484 8.08883 19.8484 8.31248C19.8484 8.83792 19.4232 9.26388 18.8986 9.26388C18.6097 9.26388 18.3509 9.13465 18.1767 8.93074L18.1695 8.93667L18.1678 8.93461C17.2835 7.86054 16.0955 7.07951 14.7599 6.69413C13.4235 6.3085 12.0018 6.33709 10.6819 6.77613C9.36195 7.21518 8.20558 8.04412 7.36485 9.15394C6.52413 10.2638 6.03841 11.6025 5.97159 12.994C5.90477 14.3856 6.25997 15.7649 6.99048 16.9504C7.72098 18.1359 8.79259 19.0722 10.0644 19.6361C11.3361 20.2 12.7485 20.3652 14.1157 20.1098C15.483 19.8545 16.741 19.1906 17.7245 18.2054L17.7341 18.2151C17.9044 18.0536 18.1342 17.9545 18.3872 17.9545C18.9118 17.9545 19.337 18.3805 19.337 18.9059C19.337 19.1593 19.2381 19.3896 19.0768 19.5601L19.0781 19.5614C18.5344 20.106 17.925 20.5738 17.2671 20.9557Z" fill="#5D2B0D"/>
<path d="M15.5261 18.2338C14.9717 18.5569 14.3636 18.7847 13.7268 18.9041C12.6042 19.1146 11.4446 18.9785 10.4005 18.5137C9.35633 18.0489 8.47652 17.2771 7.87675 16.3C7.27699 15.3228 6.98537 14.186 7.04023 13.039C7.09508 11.892 7.49387 10.7886 8.18413 9.87381C8.87438 8.95905 9.82378 8.2758 10.9075 7.91392C11.9912 7.55205 13.1584 7.52848 14.2557 7.84633C14.8782 8.02667 15.4617 8.31212 15.9827 8.68721C16.3794 8.97286 16.74 9.3105 17.0539 9.6933L17.055 9.69474L17.0522 9.69709C17.135 9.80185 17.1845 9.93449 17.1845 10.0787C17.1845 10.4177 16.9113 10.6924 16.5743 10.6924C16.3887 10.6924 16.2224 10.6091 16.1105 10.4775L16.1059 10.4814L16.1048 10.48C15.5366 9.78724 14.7733 9.28346 13.9152 9.03488C13.0566 8.78615 12.1431 8.80458 11.2951 9.08778C10.447 9.37097 9.70407 9.90565 9.16391 10.6215C8.62375 11.3373 8.31168 12.2008 8.26874 13.0984C8.22581 13.996 8.45403 14.8856 8.92337 15.6503C9.39272 16.415 10.0812 17.0189 10.8983 17.3827C11.7154 17.7464 12.6229 17.8529 13.5013 17.6882C14.3798 17.5235 15.1881 17.0953 15.8199 16.4599L15.8261 16.4661C15.9355 16.3619 16.0832 16.298 16.2457 16.298C16.5828 16.298 16.856 16.5728 16.856 16.9117C16.856 17.0751 16.7924 17.2237 16.6888 17.3336L16.6896 17.3345C16.3403 17.6857 15.9488 17.9875 15.5261 18.2338Z" fill="#A45B2F"/>
<path d="M14.4208 16.3685C14.076 16.5682 13.6978 16.7091 13.3016 16.7829C12.6033 16.913 11.882 16.8289 11.2325 16.5415C10.583 16.2541 10.0357 15.777 9.66261 15.1729C9.28953 14.5687 9.10812 13.8658 9.14225 13.1567C9.17637 12.4476 9.42444 11.7653 9.85381 11.1998C10.2832 10.6342 10.8738 10.2118 11.5479 9.98804C12.222 9.7643 12.948 9.74973 13.6306 9.94625C14.0178 10.0577 14.3808 10.2342 14.7049 10.4661C14.9517 10.6427 15.1759 10.8515 15.3712 11.0882L15.3719 11.0891L15.3702 11.0905C15.4217 11.1553 15.4525 11.2373 15.4525 11.3265C15.4525 11.536 15.2825 11.7059 15.0729 11.7059C14.9574 11.7059 14.854 11.6543 14.7844 11.573L14.7815 11.5754L14.7808 11.5746C14.4274 11.1462 13.9526 10.8348 13.4188 10.6811C12.8847 10.5273 12.3165 10.5387 11.789 10.7138C11.2614 10.8889 10.7993 11.2195 10.4633 11.662C10.1273 12.1046 9.93315 12.6385 9.90644 13.1934C9.87974 13.7484 10.0217 14.2984 10.3137 14.7712C10.6056 15.244 11.0339 15.6174 11.5422 15.8422C12.0504 16.0671 12.6149 16.133 13.1614 16.0312C13.7078 15.9293 14.2106 15.6646 14.6036 15.2717L14.6075 15.2756C14.6755 15.2112 14.7674 15.1716 14.8685 15.1716C15.0782 15.1716 15.2481 15.3415 15.2481 15.551C15.2481 15.6521 15.2086 15.7439 15.1441 15.8119L15.1446 15.8124C14.9273 16.0296 14.6838 16.2162 14.4208 16.3685Z" fill="#DA8857"/>
</svg>
